<?xml version="1.0" encoding="UTF-8"?> <!-- Generator: Adobe Illustrator 21.0.0, SVG Export Plug-In . SVG Version: 6.00 Build 0) --> <svg xmlns="http://www.w3.org/2000/svg" xmlns:xlink="http://www.w3.org/1999/xlink" version="1.1" id="Capa_1" x="0px" y="0px" viewBox="0 0 301.1 301.1" style="enable-background:new 0 0 301.1 301.1;" xml:space="preserve"> <style type="text/css"> .st0{fill:#FFFFFF;} </style> <path class="st0" d="M189.8,31.6c0-4.1-3.4-7.5-7.5-7.5h-79.5c-4.1,0-7.5,3.4-7.5,7.5v47.7c0,4.1,3.4,7.5,7.5,7.5h72v21.2l-72,72 l-18.5-18.5c-1.6-1.6-3.8-2.4-6-2.2c-2.2,0.2-4.2,1.4-5.5,3.2L1.3,265.2c-1.6,2.3-1.8,5.3-0.5,7.8c1.3,2.5,3.9,4,6.6,4h286 c0,0,0,0,0,0c4.1,0,7.5-3.4,7.5-7.5c0-1.8-0.6-3.4-1.7-4.7L189.8,108.7V31.6z M110.3,71.7V39.1h64.5v32.7H110.3z M21.9,262L80,178.3 l17.5,17.5c1.4,1.4,3.3,2.2,5.3,2.2c2,0,3.9-0.8,5.3-2.2l73.1-73.2L279.1,262L21.9,262L21.9,262z"></path> </svg> 