<?xml version="1.0" encoding="UTF-8"?> <!-- Generator: Adobe Illustrator 21.0.0, SVG Export Plug-In . SVG Version: 6.00 Build 0) --> <svg xmlns="http://www.w3.org/2000/svg" xmlns:xlink="http://www.w3.org/1999/xlink" version="1.1" id="Capa_1" x="0px" y="0px" viewBox="0 0 312 312" style="enable-background:new 0 0 312 312;" xml:space="preserve"> <style type="text/css"> .st0{fill:#FFFFFF;} </style> <g> <path class="st0" d="M304.5,32.5H7.5C3.4,32.5,0,35.9,0,40v232c0,4.1,3.4,7.5,7.5,7.5h297c4.1,0,7.5-3.4,7.5-7.5V40 C312,35.9,308.6,32.5,304.5,32.5z M297,47.5V82H15V47.5H297z M15,264.5V97h282v167.5H15z"></path> <path class="st0" d="M156,124.2c-58.7,0-102.6,45.3-104.4,47.2c-2.8,2.9-2.8,7.5,0,10.4C53.4,183.7,97.3,229,156,229 s102.6-45.3,104.4-47.2c2.8-2.9,2.8-7.5,0-10.4C258.6,169.5,214.7,124.2,156,124.2z M156,206.7c-16.5,0-29.9-13.5-29.9-30.1 s13.4-30.1,29.9-30.1c16.5,0,29.9,13.5,29.9,30.1S172.5,206.7,156,206.7z M125,144c-8.6,8.2-13.9,19.8-13.9,32.6 s5.4,24.4,13.9,32.6c-26.7-8.1-47.6-24.3-57-32.6C77.5,168.3,98.4,152,125,144z M187,209.2c8.6-8.2,13.9-19.8,13.9-32.6 s-5.4-24.4-13.9-32.6c26.7,8.1,47.6,24.3,57,32.6C234.5,184.9,213.6,201.2,187,209.2z"></path> <path class="st0" d="M156,160.7c-8.7,0-15.8,7.1-15.8,15.9c0,8.8,7.1,15.9,15.8,15.9c8.7,0,15.8-7.1,15.8-15.9 C171.8,167.8,164.7,160.7,156,160.7z"></path> <path class="st0" d="M40.5,72c2,0,3.9-0.8,5.3-2.2c1.4-1.4,2.2-3.3,2.2-5.3c0-2-0.8-3.9-2.2-5.3c-1.4-1.4-3.3-2.2-5.3-2.2 c-2,0-3.9,0.8-5.3,2.2c-1.4,1.4-2.2,3.3-2.2,5.3c0,2,0.8,3.9,2.2,5.3C36.6,71.2,38.5,72,40.5,72z"></path> <path class="st0" d="M73.5,72c2,0,3.9-0.8,5.3-2.2c1.4-1.4,2.2-3.3,2.2-5.3c0-2-0.8-3.9-2.2-5.3c-1.4-1.4-3.3-2.2-5.3-2.2 c-2,0-3.9,0.8-5.3,2.2c-1.4,1.4-2.2,3.3-2.2,5.3c0,2,0.8,3.9,2.2,5.3C69.6,71.2,71.5,72,73.5,72z"></path> <path class="st0" d="M106.5,72c2,0,3.9-0.8,5.3-2.2c1.4-1.4,2.2-3.3,2.2-5.3c0-2-0.8-3.9-2.2-5.3c-1.4-1.4-3.3-2.2-5.3-2.2 c-2,0-3.9,0.8-5.3,2.2c-1.4,1.4-2.2,3.3-2.2,5.3c0,2,0.8,3.9,2.2,5.3C102.6,71.2,104.5,72,106.5,72z"></path> </g> </svg> 